<svg xmlns="http://www.w3.org/2000/svg" viewBox="0 0 420 520"><defs><linearGradient id="bg" x2="1" y2="1"><stop stop-color="#324744"/><stop offset="1" stop-color="#111f23"/></linearGradient><linearGradient id="robe" x2="1" y2=".4"><stop stop-color="#728578"/><stop offset=".5" stop-color="#38534e"/><stop offset="1" stop-color="#142e30"/></linearGradient><linearGradient id="skin" x2="1" y2=".2"><stop stop-color="#c9b391"/><stop offset=".6" stop-color="#b69d7f"/><stop offset="1" stop-color="#736d5b"/></linearGradient><radialGradient id="light"><stop stop-color="#bca878" stop-opacity=".2"/><stop offset="1" stop-color="#bca878" stop-opacity="0"/></radialGradient></defs><path fill="url(#bg)" d="M0 0h420v520H0z"/><circle cx="190" cy="185" r="185" fill="url(#light)"/><g fill="none" stroke="#b6ad8f" opacity=".1"><circle cx="230" cy="216" r="156"/><circle cx="230" cy="216" r="168"/><path d="M0 400 135 300 200 369 310 228 420 318M0 439 100 375 205 449 312 351 420 420"/></g><path d="M37 520q-1-132 110-177l28-53 108 8 30 57q78 20 107 135v30" fill="url(#robe)"/><path d="m165 315-30 58 83 103 98-121-40-43-50 70Z" fill="#111f21"/><path d="m169 316-14 43 62 76 61-89-9-32-43 61Z" fill="#bbb49c"/><path d="m138 365 79 116-35 39H84l30-107M295 359l-66 118 56 43h79l-27-110" fill="#2a4441"/><path d="m131 366 77 117-17 37m105-162-68 124 24 38M66 432l19 88m254-110-10 110" fill="none" stroke="#88957d" stroke-width="2" opacity=".45"/><path d="M162 156q-19 13-17 76l19 68 53 38 46-24 25-51 1-84-39-44Z" fill="url(#skin)"/><path d="m251 159 13 65-9 59-39 48 45-19 25-46 2-85Z" fill="#817a65" opacity=".7"/><path d="m157 204 40-10 9 13-18-5-24 9m65-8 28-13 22 7-29-1-18 15" fill="#29302a"/><path d="m164 216 20-4 17 5-17-1Zm69-4 20-4 19 2-18 3Z" fill="#232e29"/><path d="m216 213-9 39 10 7 16-7" fill="none" stroke="#7e735f" stroke-width="3"/><path d="m181 273 23-8 14 3 16-3 25 7-18 4-23-3-21 3Z" fill="#323b32"/><path d="m201 281 20-1 20 1" fill="none" stroke="#b29d7f" stroke-width="2"/><path d="m184 284 36 23 27-19-7 50-24 33-22-40Z" fill="#29352f"/><path d="m204 302 9 51m10-49-4 56m15-63-9 51" stroke="#747863" fill="none" opacity=".6"/><path d="m149 183 6-70 38-39 81 17 23 67-10 32-15-31-106-4Z" fill="#142527"/><path d="m162 134 11-102 85-10 17 113Z" fill="#263e3c"/><path d="m175 37 4 87m14-91 3 91m14-92 2 92m14-93 2 92m13-90 5 89" stroke="#4d6358" stroke-width="3"/><path d="m150 135 126-4 16 27-137 7Z" fill="#1b2d2c"/><path d="m155 143 124-3" stroke="#b19b66" stroke-width="3"/><path d="m146 159-19 63 19-14 9-49m133 0 21 66-13-14-16-52" fill="#1b2c2b"/><path d="m177 491 128-151 28 4 9 18 4 27-12 30-107 93Z" fill="#d0c9ad"/><g stroke="#928f79" fill="none"><path d="m190 496 115-149m-112 151 127-150m-121 153 132-138m-124 141 131-121m-126 125 126-104m-121 108 116-87"/></g><path d="m174 520 36-57q9-12 18-4l7 10-31 51" fill="url(#skin)"/><text x="27" y="49" fill="#beaa7e" font-family="serif" font-size="16" writing-mode="tb" letter-spacing="7">靜以待時</text><rect x="29" y="168" width="26" height="49" rx="2" fill="#915143" opacity=".85"/><text x="42" y="187" fill="#dbc7a3" font-family="serif" font-size="15" text-anchor="middle">仲<tspan x="42" dy="20">達</tspan></text></svg>
